<?xml version="1.0" encoding="iso-8859-1"?>
<!-- Uploaded to: SVG Repo, www.svgrepo.com, Generator: SVG Repo Mixer Tools -->
<svg height="800px" width="800px" version="1.1" id="Layer_1" xmlns="http://www.w3.org/2000/svg" xmlns:xlink="http://www.w3.org/1999/xlink" 
	 viewBox="0 0 512 512" xml:space="preserve">
<path style="fill:#FEF184;" d="M417.671,503.915H29.629c-11.906,0-21.558-9.651-21.558-21.558v-292.88
	c0-5.717,2.271-11.2,6.314-15.244l95.162-95.162c4.043-4.043,9.526-6.314,15.244-6.314h292.88c11.906,0,21.558,9.651,21.558,21.558
	v388.042C439.229,494.264,429.578,503.915,417.671,503.915z"/>
<path style="fill:#FEAF50;" d="M112.181,76.438l-100.43,100.43c-1.358,1.358-0.397,3.68,1.524,3.68h81.027
	c11.906,0,21.558-9.651,21.558-21.558V77.963C115.861,76.042,113.539,75.079,112.181,76.438z"/>
<path style="fill:#DD6400;" d="M354.745,92.553l50.416-67.222c15.743-20.991,46.427-23.172,64.98-4.618l21.158,21.158
	c18.553,18.553,16.372,49.237-4.618,64.98l-67.222,50.416c-8.582,6.437-20.592,5.583-28.178-2.003l-34.534-34.534
	C349.161,113.145,348.308,101.135,354.745,92.553z"/>
<path style="fill:#FE8332;" d="M358.81,122.793l-2.062-2.062c-7.586-7.586-8.44-19.596-2.003-28.178l50.416-67.222
	c14.098-18.797,40.171-22.497,58.792-9.743c12.754,18.62,9.054,44.694-9.743,58.792l-67.222,50.416
	C378.405,131.233,366.396,130.38,358.81,122.793z"/>
<path d="M497.004,36.156l-21.157-21.158C465.345,4.496,450.819-0.922,436.016,0.129c-14.814,1.053-28.419,8.471-37.33,20.352
	l-33.142,44.193H124.799c-7.916,0-15.36,3.083-20.96,8.682L8.681,168.518C3.084,174.116,0,181.56,0,189.477v292.88
	C0,498.702,13.297,512,29.641,512h388.022c16.344,0,29.641-13.298,29.641-29.642V180.547c0-4.466-3.618-8.084-8.084-8.084
	s-8.084,3.618-8.084,8.084v301.811c0,7.43-6.044,13.474-13.473,13.474H29.641c-7.428,0-13.473-6.044-13.473-13.474v-292.88
	c0-0.283,0.009-0.565,0.026-0.846h78.117c16.344,0,29.641-13.298,29.641-29.642V80.868c0.28-0.018,0.562-0.026,0.845-0.026h228.62
	l-5.145,6.861c-8.793,11.724-7.61,28.38,2.753,38.744l11.551,11.552l-45.241,45.244h-29.013c-4.466,0-8.084,3.618-8.084,8.084
	c0,4.466,3.618,8.084,8.084,8.084h31.695c0.426,0.033,0.855,0.033,1.281,0h31.694c4.466,0,8.084-3.618,8.084-8.084
	c0-4.466-3.618-8.084-8.084-8.084h-12.792l33.808-33.81l11.549,11.551c10.364,10.362,27.018,11.547,38.744,2.753l67.219-50.416
	c11.879-8.911,19.298-22.517,20.351-37.331C512.924,61.175,507.504,46.656,497.004,36.156z M107.784,158.989
	c0,7.43-6.044,13.474-13.473,13.474H27.601l80.184-80.188V158.989z M495.742,74.841c-0.72,10.135-5.795,19.445-13.923,25.542
	L414.6,150.798c-5.328,3.997-12.899,3.46-17.61-1.25l-17.253-17.254c-0.004-0.004-0.009-0.009-0.014-0.014
	c-0.004-0.004-0.008-0.009-0.012-0.013l-17.254-17.254c-4.71-4.711-5.248-12.283-1.251-17.612l50.414-67.222
	c6.097-8.129,15.405-13.204,25.541-13.924c10.137-0.732,20.067,2.987,27.251,10.172l21.157,21.158
	C492.756,54.772,496.463,64.706,495.742,74.841z M97.005,363.789c0-4.466,3.618-8.084,8.084-8.084h118.563
	c4.466,0,8.084,3.618,8.084,8.084s-3.618,8.084-8.084,8.084H105.089C100.625,371.873,97.005,368.255,97.005,363.789z M350.3,320.673
	c0,4.466-3.618,8.084-8.084,8.084H223.653c-4.466,0-8.084-3.618-8.084-8.084s3.618-8.084,8.084-8.084h118.562
	C346.68,312.589,350.3,316.208,350.3,320.673z M342.215,371.873h-64.67c-4.466,0-8.084-3.618-8.084-8.084s3.618-8.084,8.084-8.084
	h64.67c4.466,0,8.084,3.618,8.084,8.084S346.68,371.873,342.215,371.873z M350.3,277.558c0,4.466-3.618,8.084-8.084,8.084H105.089
	c-4.466,0-8.084-3.618-8.084-8.084c0-4.466,3.618-8.084,8.084-8.084h237.125C346.68,269.473,350.3,273.092,350.3,277.558z
	 M150.898,406.905c0-4.466,3.618-8.084,8.084-8.084h129.34c4.466,0,8.084,3.618,8.084,8.084s-3.618,8.084-8.084,8.084h-129.34
	C154.517,414.989,150.898,411.371,150.898,406.905z M97.005,320.673c0-4.466,3.618-8.084,8.084-8.084h64.67
	c4.466,0,8.084,3.618,8.084,8.084s-3.618,8.084-8.084,8.084h-64.67C100.625,328.758,97.005,325.139,97.005,320.673z"/>
</svg>